<svg width="20" height="20" viewBox="0 0 20 20" fill="none" xmlns="http://www.w3.org/2000/svg">
<path d="M9.16634 4.16762H4.99967C4.55765 4.16762 4.13372 4.34321 3.82116 4.65577C3.5086 4.96833 3.33301 5.39225 3.33301 5.83428V15.0009C3.33301 15.443 3.5086 15.8669 3.82116 16.1795C4.13372 16.492 4.55765 16.6676 4.99967 16.6676H14.1663C14.6084 16.6676 15.0323 16.492 15.3449 16.1795C15.6574 15.8669 15.833 15.443 15.833 15.0009V10.8343M14.6547 2.98928C14.8084 2.8301 14.9923 2.70313 15.1957 2.61578C15.399 2.52843 15.6177 2.48245 15.839 2.48053C16.0603 2.47861 16.2798 2.52078 16.4846 2.60458C16.6894 2.68838 16.8755 2.81214 17.032 2.96862C17.1885 3.12511 17.3122 3.3112 17.396 3.51603C17.4798 3.72085 17.522 3.94032 17.5201 4.16162C17.5182 4.38292 17.4722 4.60162 17.3848 4.80496C17.2975 5.0083 17.1705 5.1922 17.0113 5.34595L9.85634 12.5009H7.49967V10.1443L14.6547 2.98928Z" stroke="#F4CF15" stroke-width="1.2" stroke-linecap="round" stroke-linejoin="round"/>
</svg>
